HIERARCHY
ROOT Hips
{
	OFFSET 0.000000 0.000000 0.000000
	CHANNELS 6 Xposition Yposition Zposition Zrotation Yrotation Xrotation 
	JOINT LHipJoint
	{
		OFFSET 0.000000 0.000000 0.000000
		CHANNELS 3 Zrotation Yrotation Xrotation
		JOINT LeftUpLeg
		{
			OFFSET 1.363060 -1.794630 0.839290
			CHANNELS 3 Zrotation Yrotation Xrotation
			JOINT LeftLeg
			{
				OFFSET 2.448110 -6.726130 0.000000
				CHANNELS 3 Zrotation Yrotation Xrotation
				JOINT LeftFoot
				{
					OFFSET 2.562200 -7.039590 0.000000
					CHANNELS 3 Zrotation Yrotation Xrotation
					JOINT LeftToeBase
					{
						OFFSET 0.157640 -0.433110 2.322550
						CHANNELS 3 Zrotation Yrotation Xrotation
						End Site
						{
							OFFSET 0.000000 0.000000 0.000000
						}
					}
				}
			}
		}
	}
	JOINT RHipJoint
	{
		OFFSET 0.000000 0.000000 0.000000
		CHANNELS 3 Zrotation Yrotation Xrotation
		JOINT RightUpLeg
		{
			OFFSET -1.305520 -1.794630 0.839290
			CHANNELS 3 Zrotation Yrotation Xrotation
			JOINT RightLeg
			{
				OFFSET -2.542530 -6.985550 0.000000
				CHANNELS 3 Zrotation Yrotation Xrotation
				JOINT RightFoot
				{
					OFFSET -2.568260 -7.056230 0.000000
					CHANNELS 3 Zrotation Yrotation Xrotation
					JOINT RightToeBase
					{
						OFFSET -0.164730 -0.452590 2.363150
						CHANNELS 3 Zrotation Yrotation Xrotation
						End Site
						{
							OFFSET 0.000000 0.000000 0.000000
						}
					}
				}
			}
		}
	}
	JOINT LowerBack
	{
		OFFSET 0.000000 0.000000 0.000000
		CHANNELS 3 Zrotation Yrotation Xrotation
		JOINT Spine
		{
			OFFSET 0.028270 2.035590 -0.193380
			CHANNELS 3 Zrotation Yrotation Xrotation
			JOINT Spine1
			{
				OFFSET 0.056720 2.048850 -0.042750
				CHANNELS 3 Zrotation Yrotation Xrotation
				JOINT Neck
				{
					OFFSET 0.000000 0.000000 0.000000
					CHANNELS 3 Zrotation Yrotation Xrotation
					JOINT Neck1
					{
						OFFSET -0.054170 1.746240 0.172020
						CHANNELS 3 Zrotation Yrotation Xrotation
						JOINT Head
						{
							OFFSET 0.104070 1.761360 -0.123970
							CHANNELS 3 Zrotation Yrotation Xrotation
							End Site
							{
								OFFSET 0.000000 0.000000 0.000000
							}
						}
					}
				}
				JOINT LeftShoulder
				{
					OFFSET 0.000000 0.000000 0.000000
					CHANNELS 3 Zrotation Yrotation Xrotation
					JOINT LeftArm
					{
						OFFSET 3.362410 1.200890 -0.311210
						CHANNELS 3 Zrotation Yrotation Xrotation
						JOINT LeftForeArm
						{
							OFFSET 4.983000 -0.000000 -0.000000
							CHANNELS 3 Zrotation Yrotation Xrotation
							JOINT LeftHand
							{
								OFFSET 3.483560 -0.000000 -0.000000
								CHANNELS 3 Zrotation Yrotation Xrotation
								JOINT LeftFingerBase
								{
									OFFSET 0.000000 0.000000 0.000000
									CHANNELS 3 Zrotation Yrotation Xrotation
									JOINT LeftHandIndex1
									{
										OFFSET 0.715260 -0.000000 -0.000000
										CHANNELS 3 Zrotation Yrotation Xrotation
										End Site
										{
											OFFSET 0.000000 0.000000 0.000000
										}
									}
								}
								JOINT LThumb
								{
									OFFSET 0.000000 0.000000 0.000000
									CHANNELS 3 Zrotation Yrotation Xrotation
									End Site
									{
										OFFSET 0.000000 0.000000 0.000000
									}
								}
							}
						}
					}
				}
				JOINT RightShoulder
				{
					OFFSET 0.000000 0.000000 0.000000
					CHANNELS 3 Zrotation Yrotation Xrotation
					JOINT RightArm
					{
						OFFSET -3.136600 1.374050 -0.404650
						CHANNELS 3 Zrotation Yrotation Xrotation
						JOINT RightForeArm
						{
							OFFSET -5.241900 -0.000000 -0.000000
							CHANNELS 3 Zrotation Yrotation Xrotation
							JOINT RightHand
							{
								OFFSET -3.444170 -0.000000 -0.000000
								CHANNELS 3 Zrotation Yrotation Xrotation
								JOINT RightFingerBase
								{
									OFFSET 0.000000 0.000000 0.000000
									CHANNELS 3 Zrotation Yrotation Xrotation
									JOINT RightHandIndex1
									{
										OFFSET -0.622530 -0.000000 -0.000000
										CHANNELS 3 Zrotation Yrotation Xrotation
										End Site
										{
											OFFSET 0.000000 0.000000 0.000000
										}
									}
								}
								JOINT RThumb
								{
									OFFSET 0.000000 0.000000 0.000000
									CHANNELS 3 Zrotation Yrotation Xrotation
									End Site
									{
										OFFSET 0.000000 0.000000 0.000000
									}
								}
							}
						}
					}
				}
			}
		}
	}
}
MOTION
Frames: 8
Frame Time: 0.008333
-6.006872 14.158107 16.187680 -26.648694 -81.762583 8.575728 30.187880 9.501306 7.378911 -55.978253 -19.035313 0.413883 15.014922 12.036760 67.745418 -4.385163 -20.679854 -50.380515 0.059600 -1.574800 -4.332000 -35.202708 -14.334941 1.735563 70.957180 1.365429 7.714600 -14.709719 -8.497412 40.451723 0.528709 12.700109 -46.970665 -0.589100 -4.914100 13.663800 -4.350486 1.571064 -3.173132 23.882113 -9.908922 62.134779 -8.339224 -0.443182 -24.476781 -13.788203 -3.880548 -39.823802 3.568353 -3.795658 49.106986 2.674700 -2.452800 12.745300 4.833497 3.546751 2.213727 -105.957467 6.075642 19.216020 34.191340 -48.729507 -5.503909 2.510802 9.878736 1.913463 11.894223 27.994094 3.117300 -7.125000 0.000000 0.000000 -17.161700 47.383700 -1.038700 -10.703104 -7.436607 -0.151284 95.946940 2.888738 15.725947 -38.943784 52.767251 -8.353517 -3.622035 -1.492997 -17.228398 -26.515131 10.206382 -4.564700 7.125000 0.000000 0.000000 3.153900 -18.045600 2.024800 
-6.047199 14.150804 16.193158 -28.227141 -81.574217 10.455010 30.598334 9.395282 7.806320 -56.421736 -20.496780 -0.254192 14.893082 11.812881 67.082148 -4.420625 -20.895316 -50.696147 0.036700 -1.237200 -3.401600 -35.104299 -14.384488 1.717941 71.208292 1.717131 7.679100 -14.653677 -8.600431 40.639733 0.416348 12.550799 -47.113872 -0.758700 -5.562900 15.521200 -4.075895 1.445025 -3.408851 24.074659 -10.036236 62.089347 -8.586006 -0.596355 -24.358238 -13.990272 -3.980496 -39.681265 4.080142 -4.048045 48.690779 2.751800 -2.459200 12.667300 4.828824 3.513898 2.200127 -105.841551 5.950923 19.424036 34.360178 -49.006928 -5.599059 2.570667 9.803148 1.844676 12.213366 27.833446 3.179400 -7.125000 0.000000 0.000000 -16.907000 47.333100 -1.000700 -10.619686 -7.533484 -0.193809 95.853515 2.964935 15.989442 -39.338069 53.156947 -8.576515 -3.619053 -1.466974 -17.409676 -26.637942 10.452667 -4.682000 7.125000 0.000000 0.000000 3.069800 -17.802400 1.987100 
-6.090385 14.148740 16.195539 -28.046664 -81.736306 10.456267 30.920414 9.337955 8.217219 -57.067560 -21.611129 -0.650322 14.746843 11.604549 66.253487 -4.472030 -21.183813 -50.897881 0.010900 -0.675200 -1.855400 -35.080460 -14.378238 1.549416 71.175940 1.817552 7.753866 -14.639564 -8.638010 40.796968 0.411438 12.561602 -47.228287 -0.798800 -5.704600 15.929600 -4.149428 1.470777 -3.536592 24.266056 -10.048297 62.043556 -8.683524 -0.566018 -24.256260 -14.602869 -4.125237 -39.553997 4.652661 -4.304893 48.543068 2.906200 -2.500100 12.652300 4.798870 3.451079 2.200019 -105.914546 5.905694 19.588468 34.431668 -49.197855 -5.648880 2.556722 9.714905 1.894902 12.209698 27.549846 3.148900 -7.125000 0.000000 0.000000 -16.823200 47.144300 -0.915100 -10.562915 -7.618723 -0.230631 95.628095 3.001178 16.191106 -39.729954 53.495985 -8.786500 -3.599802 -1.534283 -17.606664 -26.691211 10.184703 -4.607700 7.125000 0.000000 0.000000 3.025100 -18.024000 1.943300 
-6.132142 14.141913 16.202446 -26.586250 -82.041008 9.332846 31.239827 9.391789 8.728436 -57.872486 -22.811572 -1.125741 14.580383 11.418631 65.279502 -4.443603 -21.387774 -51.170029 0.023800 -0.995200 -2.735500 -35.075975 -14.387981 1.512454 71.060849 2.319598 7.464062 -14.722331 -8.689494 41.370793 0.395994 12.453077 -47.302017 -0.685600 -5.293800 14.748400 -4.177755 1.505424 -3.867212 23.924064 -9.878085 62.243433 -8.636477 -0.484458 -24.377766 -14.740164 -4.135068 -39.404516 4.747013 -4.360430 48.522089 2.936100 -2.519500 12.600200 4.771713 3.455123 2.180972 -105.842860 5.980587 20.078679 34.618150 -49.458436 -5.783297 2.768600 9.807000 0.951703 13.432459 27.991392 3.489100 -7.125000 0.000000 0.000000 -16.175400 47.627800 -1.075500 -10.489928 -7.638063 -0.262424 95.460980 3.012275 16.404214 -40.003880 53.734520 -8.935563 -3.568030 -1.625918 -17.637303 -26.669952 9.681583 -4.434900 7.125000 0.000000 0.000000 3.020900 -18.469400 1.911000 
-6.169295 14.141913 16.211496 -25.842041 -82.233299 9.219630 31.616700 9.409332 9.411401 -58.531407 -24.559509 -1.990329 14.397072 11.239735 64.382339 -4.499053 -21.714188 -51.393247 0.063300 -1.623000 -4.464800 -35.031908 -14.510466 1.571535 71.039386 2.917575 6.867176 -14.773654 -8.779785 42.096458 0.378720 12.390158 -47.460288 -0.491300 -4.494200 12.471400 -3.949854 1.490332 -4.447156 23.244122 -9.627123 62.557398 -8.543158 -0.459762 -24.613028 -14.303845 -4.078411 -39.552895 4.561521 -4.349682 48.756084 2.834900 -2.522000 12.619900 4.775501 3.537865 2.148932 -105.567994 5.959808 20.692098 34.856015 -49.704233 -5.924783 2.979194 9.981862 -0.294386 14.796575 28.696550 3.914000 -7.125000 0.000000 0.000000 -15.516700 48.335200 -1.305800 -10.359928 -7.620205 -0.279567 95.324723 2.956343 16.723878 -40.436126 54.122418 -9.155457 -3.424771 -1.748187 -17.705582 -26.043428 9.002172 -4.101900 7.125000 0.000000 0.000000 3.373800 -19.104200 2.087400 
-6.208035 14.140960 16.218958 -25.039887 -82.372033 9.176660 31.962159 9.237121 9.997150 -59.150281 -26.496228 -2.871807 14.187225 11.075332 63.522417 -4.657146 -22.215172 -51.470801 0.063600 -1.627100 -4.476200 -35.009502 -14.773781 1.558365 70.929720 3.292012 6.261778 -14.762218 -8.824198 42.731937 0.594351 12.828241 -47.613503 -0.472900 -4.410300 12.233900 -5.032813 1.410595 -4.797647 24.675731 -10.199330 61.744554 -8.642248 -0.552993 -24.423591 -15.036020 -4.062252 -39.623973 4.823480 -4.195008 49.157359 3.050100 -2.457700 12.719800 4.565978 3.459244 2.223589 -106.128644 5.987057 19.842406 34.806411 -49.845532 -5.911865 2.894744 9.688039 0.508324 14.192165 27.682376 3.632300 -7.125000 0.000000 0.000000 -15.603300 47.534900 -0.999100 -10.461381 -7.634179 -0.242653 94.797355 2.952991 17.239043 -40.921322 54.435575 -9.365314 -3.315676 -1.749857 -17.669698 -25.525653 9.004924 -4.026700 7.125000 0.000000 0.000000 3.668300 -19.113100 2.269600 
-6.250109 14.134371 16.225944 -23.763153 -82.401125 8.707460 32.260063 8.938769 10.255733 -59.773965 -28.229265 -3.596287 13.971748 10.909322 62.624455 -4.931442 -22.874063 -51.324614 0.017900 -0.863400 -2.373000 -34.991517 -15.136006 1.460796 70.750817 3.611745 5.694921 -14.737498 -8.853049 43.332225 0.895485 13.419440 -47.734662 -0.508400 -4.570400 12.687200 -7.879920 0.947051 -4.665652 28.641410 -11.916540 59.349657 -8.732527 -0.932317 -23.707853 -16.528419 -3.621945 -39.209213 4.289382 -2.882216 49.148760 3.505400 -2.100700 12.669300 3.989908 3.215685 2.395403 -107.694691 6.343830 17.712633 34.809845 -50.399470 -6.033497 3.080301 9.487227 0.691992 14.932303 27.200061 3.755500 -7.125000 0.000000 0.000000 -14.964400 47.322800 -0.876500 -10.926108 -7.657690 -0.148594 93.666355 3.235252 18.800408 -41.104173 54.367428 -9.430751 -3.353912 -1.611270 -17.551618 -25.698306 9.835075 -4.341100 7.125000 0.000000 0.000000 3.564900 -18.344900 2.266100 
-6.288214 14.130481 16.234518 -24.539742 -82.802504 9.568616 32.617544 8.879115 10.990216 -60.141994 -29.623253 -4.037978 13.782167 10.688629 61.734992 -5.424704 -23.792897 -50.950739 0.000400 -0.125000 -0.343500 -34.890231 -14.896462 1.463501 70.769495 4.163997 5.567870 -14.718069 -8.939992 43.959414 0.897710 13.504799 -47.985823 -0.535600 -4.689300 13.024400 -5.562733 1.176767 -5.556770 25.050904 -10.484630 61.510520 -8.617706 -0.697346 -24.423226 -14.757932 -3.689679 -39.244673 3.911507 -3.443269 49.097733 2.992100 -2.285100 12.566200 4.354404 3.430188 2.239627 -106.376182 6.169637 19.504069 35.138266 -50.342495 -6.137043 3.249300 9.713849 -0.555576 16.109424 27.985761 4.150600 -7.125000 0.000000 0.000000 -14.435200 48.053400 -1.109000 -10.445864 -7.615056 -0.249212 94.729126 3.053265 17.554738 -41.351840 54.819148 -9.598031 -3.346619 -1.521243 -17.229750 -25.798845 10.157580 -4.473500 7.125000 0.000000 0.000000 3.478400 -18.055600 2.233200 
